<svg width="415" height="428" viewBox="0 0 415 428" fill="none" xmlns="http://www.w3.org/2000/svg">
<path d="M46.3345 260.84C33.2655 273.634 31.0725 293.427 33.8265 310.764C33.8975 311.157 34.5065 311.05 34.5065 310.681C34.5065 306.734 34.3875 302.823 34.3995 298.924C34.4705 298.745 34.5305 298.578 34.6025 298.399C38.0125 295.919 41.1485 293.117 43.0925 289.277C45.2745 284.985 46.1325 280.143 47.8025 275.66C47.9575 275.231 47.4995 275.357 47.2005 275.578C39.2515 281.44 36.7175 287.75 34.4365 296.181C34.5435 291.805 34.8775 287.429 35.8195 283.053C37.5365 275.052 40.9345 267.123 46.6825 261.185C46.8955 260.959 46.5615 260.613 46.3345 260.84Z" fill="#112350"/>
<path d="M48.7908 262.331C51.0388 262.407 52.4488 266 54.2008 267.049C55.1278 267.607 56.0308 267.573 56.6818 266.659C58.4178 264.236 56.0358 261.246 53.7958 259.574C55.3978 260.233 56.7268 261.39 58.4538 261.718C59.4998 261.91 60.3128 261.522 60.5568 260.459C61.3178 257.155 57.1738 255.685 54.3308 255.616C55.7088 254.658 59.6598 252.053 57.5608 250.772C55.4338 249.486 50.7979 253.211 49.2859 254.437C47.0639 256.24 44.4129 258.935 44.3129 261.755C44.1829 265.048 47.0608 263.022 48.7908 262.331Z" fill="#2957E3"/>
<path opacity="0.1" d="M48.7908 262.331C51.0388 262.407 52.4488 266 54.2008 267.049C55.1278 267.607 56.0308 267.573 56.6818 266.659C58.4178 264.236 56.0358 261.246 53.7958 259.574C55.3978 260.233 56.7268 261.39 58.4538 261.718C59.4998 261.91 60.3128 261.522 60.5568 260.459C61.3178 257.155 57.1738 255.685 54.3308 255.616C55.7088 254.658 59.6598 252.053 57.5608 250.772C55.4338 249.486 50.7979 253.211 49.2859 254.437C47.0639 256.24 44.4129 258.935 44.3129 261.755C44.1829 265.048 47.0608 263.022 48.7908 262.331Z" fill="#0A111F"/>
<path d="M48.1407 262.886C51.0157 261.579 56.5367 263.46 57.0067 262.372C57.9587 260.158 53.5457 258.638 51.1637 258.344C53.3577 257.75 57.5607 256.803 57.4317 254.687C57.2737 252.104 50.9847 254.325 47.8017 256.766C43.7917 259.841 43.8177 262.808 44.4807 263.402C45.3897 264.218 47.6657 263.102 48.1407 262.886Z" fill="#2957E3"/>
<path d="M16.5726 259.573C30.1176 271.861 33.0636 291.556 30.9706 308.986C30.9146 309.382 30.3026 309.298 30.2886 308.929C30.1386 304.985 30.1086 301.072 29.9486 297.177C29.8706 297.001 29.8046 296.837 29.7256 296.66C26.2236 294.311 22.9836 291.631 20.8956 287.868C18.5516 283.662 17.5096 278.857 15.6716 274.44C15.5006 274.017 15.9626 274.125 16.2706 274.335C24.4366 279.891 27.2096 286.1 29.8096 294.437C29.5356 290.068 29.0356 285.708 27.9286 281.371C25.9086 273.441 22.2116 265.647 16.2426 259.932C16.0176 259.714 16.3376 259.355 16.5726 259.573Z" fill="#112350"/>
<path d="M14.1759 261.157C11.9319 261.318 10.6609 264.963 8.94989 266.077C8.04489 266.67 7.14189 266.67 6.45589 265.782C4.62889 263.426 6.89489 260.348 9.06988 258.592C7.49389 259.311 6.20989 260.518 4.49689 260.912C3.45889 261.143 2.63189 260.787 2.34689 259.734C1.46089 256.461 5.54588 254.835 8.38388 254.658C6.96988 253.753 2.92289 251.3 4.97189 249.94C7.04788 248.574 11.8229 252.119 13.3799 253.288C15.6689 255.005 18.4199 257.597 18.6279 260.411C18.8829 263.696 15.9309 261.781 14.1759 261.157Z" fill="#2957E3"/>
<path opacity="0.1" d="M14.1759 261.157C11.9319 261.318 10.6609 264.963 8.94989 266.077C8.04489 266.67 7.14189 266.67 6.45589 265.782C4.62889 263.426 6.89489 260.348 9.06988 258.592C7.49389 259.311 6.20989 260.518 4.49689 260.912C3.45889 261.143 2.63189 260.787 2.34689 259.734C1.46089 256.461 5.54588 254.835 8.38388 254.658C6.96988 253.753 2.92289 251.3 4.97189 249.94C7.04788 248.574 11.8229 252.119 13.3799 253.288C15.6689 255.005 18.4199 257.597 18.6279 260.411C18.8829 263.696 15.9309 261.781 14.1759 261.157Z" fill="#0A111F"/>
<path d="M14.8464 261.686C11.9244 260.489 6.47742 262.579 5.96742 261.51C4.93242 259.333 9.28342 257.648 11.6524 257.263C9.43742 256.753 5.20142 255.967 5.25042 253.848C5.30942 251.261 11.6784 253.241 14.9524 255.559C19.0764 258.479 19.1634 261.445 18.5234 262.064C17.6454 262.913 15.3284 261.884 14.8464 261.686Z" fill="#2957E3"/>
<path d="M30.4246 292.026C31.4246 298.502 32.6646 305.198 34.6306 311.455C34.8186 312.025 35.6646 311.879 35.5776 311.264C34.6876 305.277 33.0656 299.4 32.1766 293.413C31.2726 287.355 30.7896 281.213 31.1366 275.086C31.7066 264.997 34.4466 254.265 41.0306 246.37C41.1756 246.183 40.8686 245.918 40.7196 246.092C27.5386 261.46 29.6356 280.303 29.6476 281.992C27.7816 275.629 25.8586 268.337 18.8006 261.858C18.4966 261.578 18.2586 261.711 18.3096 262.186C19.5716 273.987 22.8526 280.148 29.6946 286.457C29.8866 288.327 30.1276 290.188 30.4246 292.026Z" fill="#112350"/>
<path d="M41.1481 248.137C43.5191 247.084 46.7901 250.103 49.1361 250.309C50.3781 250.421 51.2981 249.931 51.5141 248.656C52.0961 245.267 48.1191 243.365 44.9531 242.757C46.9471 242.634 48.9081 243.166 50.8651 242.637C52.0471 242.309 52.6951 241.498 52.4141 240.272C51.5401 236.46 46.5011 237.021 43.5161 238.381C44.4641 236.693 47.2511 232.001 44.4291 231.729C41.5751 231.465 38.6401 237.663 37.6881 239.697C36.2901 242.687 34.8961 246.816 36.2121 249.793C37.7351 253.275 39.7011 249.724 41.1481 248.137Z" fill="#2957E3"/>
<path opacity="0.1" d="M41.1481 248.137C43.5191 247.084 46.7901 250.103 49.1361 250.309C50.3781 250.421 51.2981 249.931 51.5141 248.656C52.0961 245.267 48.1191 243.365 44.9531 242.757C46.9471 242.634 48.9081 243.166 50.8651 242.637C52.0471 242.309 52.6951 241.498 52.4141 240.272C51.5401 236.46 46.5011 237.021 43.5161 238.381C44.4641 236.693 47.2511 232.001 44.4291 231.729C41.5751 231.465 38.6401 237.663 37.6881 239.697C36.2901 242.687 34.8961 246.816 36.2121 249.793C37.7351 253.275 39.7011 249.724 41.1481 248.137Z" fill="#0A111F"/>
<path d="M40.7524 249.04C43.0774 246.237 49.7534 245.409 49.6924 244.044C49.5654 241.268 44.2224 241.913 41.6024 242.806C43.5794 241.085 47.4634 237.987 46.2644 235.857C44.8004 233.256 39.3934 238.727 37.3194 242.862C34.7064 248.071 36.2264 251.136 37.2144 251.419C38.5694 251.806 40.3694 249.503 40.7524 249.04Z" fill="#2957E3"/>
<path d="M21.7525 295.578L15.9395 339.994H51.3135C50.5845 336.058 44.0005 295.527 44.0005 295.527L21.7525 295.578Z" fill="#2957E3"/>
<path d="M0.874023 340.143L52.53 339.9L104.187 339.812L207.5 339.644L310.813 339.811L362.469 339.899L414.126 340.143L362.469 340.388L310.813 340.476L207.5 340.642L104.187 340.475L52.53 340.386L0.874023 340.143Z" fill="#112350"/>
<path d="M207.5 427.115C289.822 427.115 356.557 417.679 356.557 406.04C356.557 394.4 289.822 384.965 207.5 384.965C125.178 384.965 58.4434 394.4 58.4434 406.04C58.4434 417.679 125.178 427.115 207.5 427.115Z" fill="#CDDFFF"/>
<path d="M115.073 184.672L108.864 160.242L59.8257 172.705L53.3447 147.205L92.5327 57.8931L111.97 52.9531L130.868 127.312L146.56 123.324L153.086 149.002L137.394 152.99L143.603 177.42L115.073 184.672ZM81.4747 139.866L105.727 133.703L97.7047 102.14L81.4747 139.866Z" fill="#112350"/>
<path d="M255.521 103.118C255.521 111.214 254.293 118.665 251.841 125.473C249.386 132.281 246.013 138.168 241.72 143.136C237.425 148.104 232.366 151.968 226.542 154.727C220.714 157.487 214.366 158.867 207.498 158.867C200.627 158.867 194.251 157.487 188.363 154.727C182.475 151.967 177.384 148.103 173.092 143.136C168.797 138.168 165.456 132.281 163.065 125.473C160.673 118.665 159.477 111.214 159.477 103.118C159.477 95.023 160.673 87.571 163.065 80.764C165.457 73.956 168.797 68.069 173.092 63.101C177.384 58.133 182.475 54.241 188.363 51.418C194.251 48.598 200.627 47.186 207.498 47.186C214.366 47.186 220.713 48.598 226.542 51.418C232.366 54.241 237.425 58.133 241.72 63.101C246.013 68.069 249.386 73.956 251.841 80.764C254.293 87.571 255.521 95.023 255.521 103.118ZM225.898 103.118C225.898 94.534 224.179 87.571 220.746 82.235C217.31 76.9 212.896 74.232 207.499 74.232C201.856 74.232 197.348 76.9 193.976 82.235C190.601 87.571 188.916 94.534 188.916 103.118C188.916 111.705 190.601 118.637 193.976 123.909C197.348 129.184 201.856 131.821 207.499 131.821C212.896 131.821 217.31 129.185 220.746 123.909C224.18 118.637 225.898 111.705 225.898 103.118Z" fill="#112350"/>
<path d="M308.343 179.964L312.374 155.082L262.429 146.99L266.637 121.018L338.145 54.6931L357.942 57.9001L345.672 133.636L361.655 136.225L357.418 162.379L341.435 159.79L337.404 184.672L308.343 179.964ZM295.362 125.486L320.062 129.488L325.27 97.3411L295.362 125.486Z" fill="#112350"/>
<path d="M166.174 29.461C164.073 29.461 162.168 29.05 160.458 28.229C158.747 27.408 157.28 26.317 156.055 24.957C154.829 23.598 153.88 22.042 153.207 20.292C152.534 18.542 152.197 16.751 152.197 14.919C152.197 13.007 152.553 11.176 153.267 9.42498C153.98 7.67498 154.964 6.12598 156.216 4.77898C157.468 3.43198 158.956 2.36198 160.68 1.56698C162.403 0.772978 164.275 0.375977 166.295 0.375977C168.369 0.375977 170.26 0.799976 171.971 1.64798C173.681 2.49598 175.142 3.60698 176.354 4.98098C177.566 6.35498 178.508 7.91698 179.182 9.66698C179.855 11.418 180.192 13.195 180.192 15C180.192 16.913 179.841 18.736 179.142 20.474C178.441 22.211 177.472 23.746 176.233 25.079C174.994 26.412 173.513 27.476 171.79 28.27C170.065 29.064 168.194 29.461 166.174 29.461ZM157.852 14.918C157.852 16.157 158.04 17.356 158.417 18.513C158.794 19.671 159.339 20.695 160.053 21.583C160.766 22.472 161.642 23.185 162.679 23.724C163.715 24.263 164.894 24.532 166.214 24.532C167.56 24.532 168.752 24.256 169.789 23.704C170.826 23.153 171.701 22.418 172.415 21.502C173.128 20.587 173.667 19.557 174.031 18.412C174.395 17.267 174.576 16.103 174.576 14.917C174.576 13.679 174.38 12.48 173.99 11.322C173.599 10.164 173.047 9.14098 172.334 8.25198C171.62 7.36298 170.745 6.65698 169.709 6.13098C168.672 5.60598 167.507 5.34298 166.215 5.34298C164.868 5.34298 163.67 5.61898 162.619 6.17098C161.569 6.72298 160.694 7.44998 159.994 8.35198C159.293 9.25498 158.762 10.278 158.398 11.422C158.034 12.569 157.852 13.733 157.852 14.918Z" fill="#112350"/>
<path d="M193.725 29.6631C192.001 29.6631 190.453 29.3671 189.08 28.7741C187.706 28.1821 186.541 27.3801 185.585 26.3711C184.629 25.3611 183.895 24.196 183.383 22.876C182.871 21.557 182.615 20.1691 182.615 18.715C182.615 17.234 182.871 15.834 183.383 14.514C183.894 13.195 184.629 12.0301 185.585 11.0201C186.541 10.0101 187.706 9.20905 189.08 8.61605C190.453 8.02405 192.001 7.72705 193.725 7.72705C195.448 7.72705 196.99 8.02405 198.351 8.61605C199.71 9.20905 200.869 10.0101 201.825 11.0201C202.781 12.0301 203.515 13.195 204.027 14.514C204.538 15.834 204.794 17.234 204.794 18.715C204.794 20.1691 204.538 21.557 204.027 22.876C203.515 24.196 202.788 25.3601 201.846 26.3711C200.903 27.3811 199.745 28.1831 198.372 28.7741C196.997 29.3661 195.448 29.6631 193.725 29.6631ZM188.19 18.715C188.19 19.658 188.332 20.513 188.614 21.28C188.897 22.048 189.287 22.714 189.785 23.28C190.283 23.845 190.869 24.2831 191.542 24.5931C192.215 24.9031 192.942 25.058 193.724 25.058C194.505 25.058 195.232 24.9031 195.905 24.5931C196.578 24.2841 197.164 23.846 197.662 23.28C198.16 22.714 198.551 22.0411 198.833 21.2601C199.116 20.4791 199.257 19.618 199.257 18.675C199.257 17.76 199.115 16.9121 198.833 16.1301C198.55 15.3491 198.16 14.6761 197.662 14.1101C197.163 13.5441 196.577 13.1071 195.905 12.7971C195.232 12.4871 194.505 12.3321 193.724 12.3321C192.942 12.3321 192.215 12.4941 191.542 12.8171C190.869 13.1401 190.283 13.5851 189.785 14.1501C189.286 14.7161 188.896 15.389 188.614 16.17C188.331 16.952 188.19 17.8 188.19 18.715Z" fill="#112350"/>
<path d="M221.113 29.6631C219.443 29.6631 217.989 29.2931 216.751 28.5521C215.512 27.8121 214.542 26.809 213.842 25.543V37.864H208.429V8.09105H213.155V11.7261C213.936 10.4881 214.946 9.51105 216.185 8.79705C217.423 8.08405 218.851 7.72705 220.466 7.72705C221.894 7.72705 223.213 8.01705 224.425 8.59605C225.637 9.17505 226.681 9.95605 227.556 10.939C228.431 11.922 229.118 13.08 229.617 14.413C230.115 15.746 230.364 17.154 230.364 18.635C230.364 20.17 230.135 21.6111 229.677 22.9571C229.219 24.3041 228.579 25.476 227.758 26.472C226.936 27.469 225.96 28.2491 224.829 28.8151C223.699 29.3801 222.46 29.6631 221.113 29.6631ZM219.296 25.058C220.104 25.058 220.851 24.883 221.538 24.533C222.224 24.183 222.81 23.7121 223.295 23.1191C223.779 22.5271 224.156 21.84 224.426 21.058C224.696 20.277 224.83 19.47 224.83 18.635C224.83 17.746 224.682 16.9181 224.386 16.1511C224.089 15.3831 223.679 14.7171 223.154 14.1511C222.629 13.5861 222.009 13.1411 221.296 12.8181C220.582 12.4951 219.808 12.333 218.974 12.333C218.462 12.333 217.937 12.4211 217.399 12.5961C216.86 12.7711 216.362 13.0201 215.904 13.3441C215.446 13.6671 215.036 14.045 214.672 14.475C214.309 14.906 214.032 15.378 213.844 15.889V20.8581C214.329 22.0701 215.07 23.073 216.066 23.867C217.06 24.661 218.138 25.058 219.296 25.058Z" fill="#112350"/>
<path d="M242.038 29.663C240.261 29.663 238.523 29.38 236.827 28.815C235.13 28.25 233.676 27.441 232.464 26.391L234.484 22.998C235.777 23.914 237.036 24.607 238.261 25.078C239.487 25.55 240.705 25.785 241.917 25.785C242.993 25.785 243.842 25.583 244.462 25.179C245.081 24.775 245.391 24.196 245.391 23.442C245.391 22.688 245.028 22.136 244.3 21.786C243.573 21.436 242.388 21.032 240.745 20.574C239.372 20.197 238.2 19.833 237.23 19.483C236.26 19.133 235.479 18.736 234.887 18.291C234.294 17.847 233.864 17.335 233.594 16.756C233.324 16.177 233.191 15.483 233.191 14.675C233.191 13.598 233.399 12.629 233.817 11.766C234.234 10.905 234.82 10.17 235.574 9.56403C236.328 8.95803 237.211 8.49404 238.22 8.17104C239.23 7.84804 240.326 7.68604 241.512 7.68604C243.101 7.68604 244.588 7.91504 245.976 8.37304C247.363 8.83104 248.635 9.57104 249.793 10.595L247.611 13.867C246.534 13.059 245.491 12.467 244.48 12.09C243.47 11.713 242.467 11.525 241.471 11.525C240.555 11.525 239.787 11.714 239.168 12.09C238.548 12.467 238.238 13.073 238.238 13.908C238.238 14.285 238.312 14.595 238.461 14.837C238.608 15.079 238.845 15.295 239.168 15.483C239.491 15.672 239.915 15.854 240.44 16.028C240.965 16.204 241.618 16.385 242.399 16.573C243.853 16.95 245.098 17.327 246.135 17.704C247.172 18.081 248.02 18.512 248.68 18.996C249.34 19.481 249.825 20.04 250.135 20.672C250.444 21.305 250.599 22.066 250.599 22.955C250.599 25.029 249.832 26.665 248.296 27.863C246.765 29.064 244.677 29.663 242.038 29.663Z" fill="#112350"/>
<path d="M255.166 18.4729V0.293945H260.579V18.4729H255.166ZM255.166 29.2589V23.1589H260.579V29.2589H255.166Z" fill="#112350"/>
<path d="M228.101 270.845H192.589V273.754H228.101V270.845Z" fill="#242549"/>
<path d="M228.101 274.634H192.589V277.543H228.101V274.634Z" fill="#242549"/>
<path d="M228.101 278.424H192.589V281.333H228.101V278.424Z" fill="#242549"/>
<path d="M228.101 282.213H192.589V285.122H228.101V282.213Z" fill="#242549"/>
<path d="M228.101 286.002H192.589V288.911H228.101V286.002Z" fill="#242549"/>
<path d="M243.474 361.594H175.958V364.503H243.474V361.594Z" fill="#242549"/>
<path d="M243.474 365.383H175.958V368.292H243.474V365.383Z" fill="#242549"/>
<path d="M243.474 369.172H175.958V372.081H243.474V369.172Z" fill="#242549"/>
<path d="M243.474 372.961H175.958V375.87H243.474V372.961Z" fill="#242549"/>
<path d="M243.474 376.751H175.958V379.66H243.474V376.751Z" fill="#242549"/>
<path d="M146.335 246.798C146.368 246.405 131.558 241.444 131.558 241.444L132.433 190.558L152.072 186.344L146.335 246.798Z" fill="#2957E3"/>
<path opacity="0.2" d="M146.335 246.798C146.368 246.405 131.558 241.444 131.558 241.444L132.433 190.558L152.072 186.344L146.335 246.798Z" fill="#0A111F"/>
<path d="M281.989 266.772C282.093 266.391 297.707 266.83 297.707 266.83L314.397 218.751L297.408 208.036L281.989 266.772Z" fill="#2957E3"/>
<path opacity="0.2" d="M281.989 266.772C282.093 266.391 297.707 266.83 297.707 266.83L314.397 218.751L297.408 208.036L281.989 266.772Z" fill="#0A111F"/>
<path d="M143.483 265.536C143.483 265.536 148.974 183.238 153.79 156.165C153.79 156.165 253.207 163.684 306.876 184.197C306.876 184.197 279.207 280.325 277.775 285.095C277.775 285.095 207.767 271.304 143.483 265.536Z" fill="#2957E3"/>
<path opacity="0.1" d="M232.223 167.155C230.607 177.064 228.971 186.97 227.278 196.866L222.154 226.545L221.878 226.126L255.189 234.039L271.827 238.071L288.446 242.183L271.739 238.444L255.051 234.626L221.71 226.838L221.373 226.759L221.434 226.418L226.739 196.771C228.522 186.891 230.363 177.021 232.223 167.155Z" fill="#0A111F"/>
<path opacity="0.1" d="M228.568 172.803C228.586 173.711 227.862 174.644 226.822 174.735C226.318 174.783 225.77 174.622 225.36 174.265C224.95 173.908 224.705 173.358 224.702 172.803C224.705 172.248 224.948 171.697 225.359 171.34C225.768 170.98 226.318 170.822 226.822 170.869C227.863 170.96 228.586 171.895 228.568 172.803ZM228.568 172.803C228.564 172.345 228.361 171.895 228.02 171.606C227.678 171.317 227.23 171.199 226.823 171.246C225.984 171.343 225.44 172.096 225.452 172.803C225.439 173.51 225.982 174.267 226.823 174.362C227.23 174.408 227.679 174.29 228.021 174.001C228.361 173.711 228.564 173.261 228.568 172.803Z" fill="#0A111F"/>
<path opacity="0.1" d="M226.822 185.048C226.84 185.956 226.116 186.89 225.076 186.98C224.572 187.028 224.024 186.867 223.614 186.51C223.204 186.153 222.959 185.603 222.956 185.048C222.959 184.493 223.202 183.942 223.613 183.585C224.022 183.225 224.572 183.067 225.076 183.114C226.118 183.206 226.841 184.141 226.822 185.048ZM226.822 185.048C226.818 184.59 226.615 184.14 226.274 183.851C225.932 183.562 225.484 183.444 225.077 183.491C224.238 183.588 223.694 184.341 223.706 185.048C223.693 185.755 224.236 186.512 225.077 186.607C225.484 186.653 225.933 186.535 226.275 186.245C226.616 185.957 226.818 185.506 226.822 185.048Z" fill="#0A111F"/>
<path opacity="0.1" d="M224.672 197.988C224.69 198.896 223.966 199.83 222.926 199.92C222.422 199.968 221.874 199.808 221.464 199.45C221.054 199.093 220.809 198.543 220.806 197.988C220.809 197.433 221.052 196.882 221.463 196.525C221.872 196.165 222.422 196.006 222.926 196.053C223.968 196.145 224.691 197.08 224.672 197.988ZM224.672 197.988C224.668 197.53 224.465 197.079 224.124 196.79C223.782 196.501 223.334 196.383 222.927 196.43C222.088 196.527 221.544 197.281 221.556 197.988C221.543 198.695 222.086 199.452 222.927 199.547C223.334 199.594 223.783 199.474 224.125 199.185C224.465 198.895 224.668 198.446 224.672 197.988Z" fill="#0A111F"/>
<path opacity="0.1" d="M222.522 210.926C222.541 211.834 221.816 212.767 220.776 212.858C220.272 212.905 219.724 212.745 219.314 212.388C218.904 212.031 218.659 211.481 218.656 210.926C218.658 210.371 218.903 209.82 219.313 209.463C219.722 209.103 220.272 208.945 220.776 208.992C221.818 209.083 222.541 210.018 222.522 210.926ZM222.522 210.926C222.518 210.468 222.315 210.018 221.973 209.729C221.631 209.44 221.183 209.322 220.776 209.369C219.937 209.466 219.393 210.219 219.405 210.926C219.392 211.633 219.935 212.39 220.776 212.485C221.183 212.531 221.632 212.413 221.974 212.124C222.315 211.834 222.518 211.384 222.522 210.926Z" fill="#0A111F"/>
<path opacity="0.1" d="M229.847 231.561C229.866 232.469 229.141 233.402 228.101 233.493C227.597 233.54 227.049 233.38 226.639 233.023C226.229 232.666 225.984 232.116 225.981 231.561C225.983 231.006 226.227 230.455 226.638 230.098C227.047 229.738 227.597 229.58 228.101 229.627C229.142 229.718 229.865 230.653 229.847 231.561ZM229.847 231.561C229.843 231.103 229.64 230.653 229.298 230.364C228.956 230.075 228.508 229.957 228.101 230.004C227.262 230.101 226.718 230.854 226.73 231.561C226.717 232.268 227.26 233.025 228.101 233.12C228.508 233.167 228.957 233.048 229.299 232.758C229.64 232.469 229.842 232.019 229.847 231.561Z" fill="#0A111F"/>
<path opacity="0.1" d="M242.061 234.54C242.08 235.448 241.355 236.382 240.315 236.472C239.811 236.519 239.263 236.359 238.853 236.002C238.443 235.645 238.198 235.095 238.195 234.54C238.198 233.985 238.442 233.434 238.852 233.077C239.261 232.717 239.811 232.559 240.315 232.606C241.357 232.698 242.08 233.632 242.061 234.54ZM242.061 234.54C242.057 234.082 241.854 233.632 241.513 233.343C241.171 233.054 240.723 232.936 240.316 232.983C239.477 233.08 238.933 233.833 238.945 234.54C238.932 235.247 239.475 236.004 240.316 236.099C240.723 236.145 241.172 236.027 241.514 235.737C241.854 235.448 242.057 234.998 242.061 234.54Z" fill="#0A111F"/>
<path opacity="0.1" d="M254.275 237.52C254.293 238.428 253.569 239.361 252.529 239.452C252.025 239.499 251.477 239.339 251.067 238.982C250.657 238.625 250.412 238.075 250.409 237.52C250.412 236.965 250.655 236.414 251.066 236.057C251.475 235.697 252.025 235.539 252.529 235.586C253.57 235.677 254.293 236.612 254.275 237.52ZM254.275 237.52C254.271 237.062 254.068 236.612 253.727 236.323C253.385 236.034 252.937 235.916 252.53 235.963C251.691 236.06 251.147 236.813 251.159 237.52C251.146 238.227 251.689 238.984 252.53 239.079C252.937 239.125 253.386 239.007 253.728 238.717C254.068 238.428 254.27 237.977 254.275 237.52Z" fill="#0A111F"/>
<path opacity="0.1" d="M266.488 240.499C266.507 241.407 265.782 242.34 264.742 242.431C264.238 242.478 263.69 242.319 263.28 241.961C262.87 241.604 262.625 241.054 262.622 240.499C262.625 239.944 262.868 239.393 263.279 239.036C263.688 238.676 264.238 238.518 264.742 238.565C265.784 238.656 266.506 239.591 266.488 240.499ZM266.488 240.499C266.484 240.041 266.281 239.591 265.94 239.302C265.598 239.013 265.15 238.895 264.743 238.942C263.904 239.039 263.36 239.792 263.372 240.499C263.359 241.206 263.902 241.963 264.743 242.058C265.15 242.104 265.599 241.986 265.941 241.697C266.281 241.407 266.484 240.957 266.488 240.499Z" fill="#0A111F"/>
<path opacity="0.1" d="M278.696 243.612C278.645 244.519 277.851 245.394 276.807 245.404C276.301 245.413 275.767 245.211 275.385 244.823C275.003 244.435 274.801 243.869 274.841 243.315C274.886 242.762 275.172 242.232 275.609 241.907C276.045 241.58 276.605 241.464 277.104 241.55C278.136 241.721 278.784 242.709 278.696 243.612ZM278.696 243.612C278.727 243.155 278.559 242.691 278.241 242.376C277.922 242.061 277.484 241.909 277.075 241.925C276.231 241.957 275.63 242.666 275.588 243.372C275.52 244.076 276.004 244.872 276.835 245.032C277.237 245.11 277.694 245.027 278.057 244.764C278.42 244.502 278.657 244.069 278.696 243.612Z" fill="#0A111F"/>
<path opacity="0.1" d="M220.372 223.865C220.39 224.773 219.666 225.707 218.626 225.797C218.122 225.845 217.574 225.685 217.164 225.327C216.754 224.97 216.509 224.42 216.506 223.865C216.509 223.31 216.753 222.759 217.163 222.402C217.572 222.042 218.122 221.883 218.626 221.931C219.668 222.022 220.391 222.957 220.372 223.865ZM220.372 223.865C220.368 223.407 220.165 222.957 219.823 222.668C219.481 222.379 219.033 222.261 218.626 222.308C217.787 222.405 217.243 223.158 217.255 223.865C217.242 224.572 217.785 225.329 218.626 225.424C219.033 225.47 219.482 225.352 219.823 225.062C220.166 224.773 220.368 224.323 220.372 223.865Z" fill="#0A111F"/>
<path opacity="0.2" d="M199.804 245.304C211.397 234.88 212.345 217.03 201.921 205.436C191.496 193.843 173.647 192.895 162.053 203.319C150.459 213.744 149.511 231.593 159.936 243.187C170.36 254.781 188.21 255.729 199.804 245.304Z" fill="#0A111F"/>
<path d="M202.094 232.328C206.521 220.634 200.629 207.565 188.935 203.139C177.241 198.712 164.173 204.604 159.746 216.298C155.32 227.992 161.211 241.06 172.905 245.487C184.599 249.913 197.668 244.022 202.094 232.328Z" fill="#112350"/>
<path d="M179.564 215.988L174.271 215.131L173.414 220.424L178.707 221.281L179.564 215.988Z" fill="#2957E3"/>
<path d="M175.128 209.838L169.835 208.981L168.978 214.274L174.27 215.131L175.128 209.838Z" fill="#2957E3"/>
<path d="M196.3 213.268L191.007 212.41L190.149 217.703L195.442 218.56L196.3 213.268Z" fill="#2957E3"/>
<path d="M171.718 230.89L166.425 230.032L165.567 235.325L170.86 236.182L171.718 230.89Z" fill="#2957E3"/>
<path d="M192.89 234.319L187.597 233.462L186.739 238.755L192.032 239.612L192.89 234.319Z" fill="#2957E3"/>
<path d="M177.868 226.455L172.575 225.598L171.718 230.89L177.011 231.748L177.868 226.455Z" fill="#2957E3"/>
<path d="M184.009 222.079L178.716 221.221L177.858 226.514L183.151 227.371L184.009 222.079Z" fill="#2957E3"/>
<path d="M190.149 217.703L184.856 216.845L183.999 222.138L189.292 222.995L190.149 217.703Z" fill="#2957E3"/>
<path d="M188.46 228.166L183.167 227.309L182.31 232.601L187.602 233.459L188.46 228.166Z" fill="#2957E3"/>
<path d="M278.528 254.021C288.41 241.961 286.644 224.173 274.584 214.291C262.524 204.409 244.737 206.175 234.855 218.235C224.973 230.295 226.739 248.083 238.799 257.965C250.859 267.847 268.646 266.081 278.528 254.021Z" fill="#2957E3"/>
<path opacity="0.2" d="M278.528 254.021C288.41 241.961 286.644 224.173 274.584 214.291C262.524 204.409 244.737 206.175 234.855 218.235C224.973 230.295 226.739 248.083 238.799 257.965C250.859 267.847 268.646 266.081 278.528 254.021Z" fill="#0A111F"/>
<path opacity="0.2" d="M284.16 242.672C284.03 243.228 283.882 243.765 283.715 244.302L228.688 232.565C228.817 231.583 228.993 230.601 229.224 229.61C232.828 214.445 248.048 205.07 263.223 208.673C278.389 212.277 287.764 227.497 284.16 242.672Z" fill="#0A111F"/>
<path d="M265.415 257.036C276.953 252.215 282.399 238.954 277.578 227.417C272.758 215.879 259.497 210.433 247.959 215.254C236.422 220.074 230.976 233.335 235.796 244.873C240.617 256.411 253.878 261.856 265.415 257.036Z" fill="#112350"/>
<path d="M262.391 223.77L257.175 222.531L251.004 248.496L256.221 249.736L262.391 223.77Z" fill="#2957E3"/>
<path d="M285.798 242.141L227.997 228.404C231.79 212.446 247.806 202.586 263.764 206.378C279.723 210.172 289.591 226.183 285.798 242.141Z" fill="#2957E3"/>
<path opacity="0.2" d="M285.798 242.141L227.997 228.404C231.79 212.446 247.806 202.586 263.764 206.378C279.723 210.172 289.591 226.183 285.798 242.141Z" fill="#0A111F"/>
<path opacity="0.1" d="M207.571 252.922C207.717 250.665 208.546 248.376 210.183 246.566C210.99 245.654 212.067 244.938 213.253 244.502C214.445 244.064 215.733 243.987 216.954 244.091C218.197 244.236 219.466 244.674 220.502 245.458C221.518 246.258 222.297 247.301 222.755 248.424C223.698 250.662 223.801 253.054 223.344 255.272C222.968 253.055 222.395 250.902 221.354 249.135C220.321 247.354 218.687 246.247 216.74 246.075C214.754 245.828 212.816 246.361 211.255 247.68C209.694 248.995 208.502 250.878 207.571 252.922Z" fill="#0A111F"/>
<path d="M151.217 195.34C151.451 192.324 151.79 189.322 152.076 186.313C152.397 183.309 152.727 180.306 153.092 177.309C153.439 174.309 153.83 171.315 154.214 168.319C154.59 165.323 155.024 162.335 155.426 159.342L155.533 158.543L156.343 158.594C162.857 159.004 169.357 159.53 175.848 160.198C179.093 160.531 182.334 160.908 185.571 161.324C188.802 161.788 192.038 162.216 195.25 162.804L175.733 161.596L156.236 160.335L157.153 159.587C156.71 162.574 156.298 165.565 155.829 168.548C155.367 171.532 154.912 174.517 154.414 177.496C153.934 180.477 153.419 183.454 152.894 186.429C152.335 189.399 151.828 192.377 151.217 195.34Z" fill="#FBFCFF"/>
<path d="M155.912 218.156C156.567 214.53 158.215 211.075 160.429 208.066C160.98 207.309 161.607 206.61 162.21 205.89C162.863 205.216 163.542 204.564 164.212 203.903C164.943 203.309 165.681 202.72 166.431 202.149C167.228 201.644 168.015 201.117 168.825 200.632C169.678 200.222 170.526 199.8 171.387 199.41L174.069 198.482L176.845 197.909C177.777 197.773 178.724 197.744 179.659 197.674C183.423 197.577 187.128 198.38 190.528 199.757C186.909 199.079 183.303 198.703 179.748 199.042C176.202 199.372 172.756 200.432 169.675 202.168C166.57 203.863 163.82 206.201 161.497 208.917C159.184 211.647 157.269 214.739 155.912 218.156Z" fill="#FBFCFF"/>
<path d="M233.788 225.782C234.938 222.281 237.047 219.087 239.655 216.412C240.305 215.739 241.023 215.133 241.72 214.503C242.459 213.926 243.222 213.374 243.977 212.811C244.783 212.323 245.595 211.842 246.417 211.38C247.276 210.99 248.128 210.576 248.998 210.208C249.9 209.92 250.798 209.619 251.704 209.352L254.489 208.803L257.318 208.619C258.26 208.612 259.201 208.715 260.137 208.774C263.879 209.198 267.436 210.505 270.614 212.338C267.123 211.167 263.604 210.296 260.036 210.142C256.478 209.98 252.919 210.554 249.628 211.848C246.319 213.098 243.272 215.034 240.596 217.403C237.926 219.788 235.603 222.585 233.788 225.782Z" fill="#FBFCFF"/>
<path d="M146.641 316.252C139.409 316.252 123.577 314.626 113.389 301.527C100.355 284.769 105.066 252.613 105.272 251.252L110.931 252.111C110.884 252.42 106.387 283.201 117.907 298.013C129.17 312.494 149.599 310.415 149.804 310.39L150.448 316.077C150.225 316.104 148.824 316.252 146.641 316.252Z" fill="#2957E3"/>
<path opacity="0.4" d="M146.641 316.252C139.409 316.252 123.577 314.626 113.389 301.527C100.355 284.769 105.066 252.613 105.272 251.252L110.931 252.111C110.884 252.42 106.387 283.201 117.907 298.013C129.17 312.494 149.599 310.415 149.804 310.39L150.448 316.077C150.225 316.104 148.824 316.252 146.641 316.252Z" fill="#FBFCFF"/>
<path d="M112.597 256.005C111.565 256.005 110.511 255.919 109.438 255.745C99.8923 254.199 95.6663 248.487 93.8013 243.967C91.9323 239.437 91.5003 233.957 92.5173 227.681L104.623 229.643C103.993 233.531 104.176 236.958 105.138 239.29C105.824 240.954 107.156 242.952 111.399 243.639C113.337 243.953 115.432 243.787 117.626 240.478C119.319 237.924 120.337 234.448 120.693 232.246L132.799 234.207C132.519 235.939 131.332 241.999 127.847 247.255C124.057 252.972 118.722 256.005 112.597 256.005Z" fill="#2957E3"/>
<path d="M158.6 332.633C158.579 332.372 148.344 330.737 148.344 330.737L143.376 297.332L155.773 292.435L158.6 332.633Z" fill="#2957E3"/>
<path opacity="0.2" d="M158.6 332.633C158.579 332.372 148.344 330.737 148.344 330.737L143.376 297.332L155.773 292.435L158.6 332.633Z" fill="#0A111F"/>
<path d="M259.796 332.695C259.823 332.435 270.092 331.026 270.092 331.026L275.797 297.739L263.511 292.569L259.796 332.695Z" fill="#2957E3"/>
<path opacity="0.2" d="M259.796 332.695C259.823 332.435 270.092 331.026 270.092 331.026L275.797 297.739L263.511 292.569L259.796 332.695Z" fill="#0A111F"/>
<path d="M154.341 284.955C154.341 284.955 237.127 281.415 265.092 286.076C265.092 286.076 256.88 366.182 256.436 367.736C256.436 367.736 174.085 367.514 161.212 367.736C161.212 367.736 154.235 314.469 154.341 284.955Z" fill="#2957E3"/>
<path opacity="0.2" d="M179.487 306.906C179.487 306.906 224.68 305.121 239.947 307.471C239.947 307.471 235.464 347.865 235.222 348.648C235.222 348.648 190.266 348.536 183.239 348.648C183.237 348.648 180.149 321.002 179.487 306.906Z" fill="#0A111F"/>
<path opacity="0.2" d="M185.664 348.631C184.629 348.631 183.809 348.644 183.235 348.651C183.235 348.651 180.151 321 179.484 306.904C179.484 306.904 180.512 306.864 182.307 306.804L185.664 348.631Z" fill="#0A111F"/>
<path d="M198.994 316.873C196.461 316.075 193.762 317.481 192.964 320.012C192.165 322.548 193.573 325.244 196.106 326.042C198.637 326.84 201.333 325.435 202.131 322.902C202.929 320.372 201.525 317.671 198.994 316.873ZM201.574 322.726C200.873 324.952 198.504 326.186 196.281 325.485C194.058 324.784 192.823 322.416 193.525 320.19C194.226 317.967 196.595 316.732 198.82 317.434C201.04 318.134 202.275 320.503 201.574 322.726ZM198.994 316.873C196.461 316.075 193.762 317.481 192.964 320.012C192.165 322.548 193.573 325.244 196.106 326.042C198.637 326.84 201.333 325.435 202.131 322.902C202.929 320.372 201.525 317.671 198.994 316.873ZM201.574 322.726C200.873 324.952 198.504 326.186 196.281 325.485C194.058 324.784 192.823 322.416 193.525 320.19C194.226 317.967 196.595 316.732 198.82 317.434C201.04 318.134 202.275 320.503 201.574 322.726ZM198.994 316.873C196.461 316.075 193.762 317.481 192.964 320.012C192.165 322.548 193.573 325.244 196.106 326.042C198.637 326.84 201.333 325.435 202.131 322.902C202.929 320.372 201.525 317.671 198.994 316.873ZM201.574 322.726C200.873 324.952 198.504 326.186 196.281 325.485C194.058 324.784 192.823 322.416 193.525 320.19C194.226 317.967 196.595 316.732 198.82 317.434C201.04 318.134 202.275 320.503 201.574 322.726ZM200.596 311.795C195.255 310.113 189.568 313.08 187.885 318.413C186.204 323.749 189.165 329.44 194.504 331.121C199.837 332.801 205.529 329.838 207.21 324.502C208.893 319.169 205.93 313.475 200.596 311.795ZM202.846 323.126C201.925 326.049 198.801 327.677 195.881 326.756C192.961 325.836 191.333 322.712 192.253 319.789C193.174 316.866 196.3 315.241 199.22 316.161C202.138 317.082 203.766 320.206 202.846 323.126ZM202.131 322.903C202.929 320.372 201.525 317.672 198.994 316.874C196.461 316.076 193.762 317.482 192.964 320.013C192.165 322.549 193.573 325.245 196.106 326.043C198.637 326.841 201.333 325.436 202.131 322.903ZM201.574 322.726C200.873 324.952 198.504 326.186 196.281 325.485C194.058 324.784 192.823 322.416 193.525 320.19C194.226 317.967 196.595 316.732 198.82 317.434C201.04 318.134 202.275 320.503 201.574 322.726ZM198.994 316.873C196.461 316.075 193.762 317.481 192.964 320.012C192.165 322.548 193.573 325.244 196.106 326.042C198.637 326.84 201.333 325.435 202.131 322.902C202.929 320.372 201.525 317.671 198.994 316.873ZM201.574 322.726C200.873 324.952 198.504 326.186 196.281 325.485C194.058 324.784 192.823 322.416 193.525 320.19C194.226 317.967 196.595 316.732 198.82 317.434C201.04 318.134 202.275 320.503 201.574 322.726ZM198.994 316.873C196.461 316.075 193.762 317.481 192.964 320.012C192.165 322.548 193.573 325.244 196.106 326.042C198.637 326.84 201.333 325.435 202.131 322.902C202.929 320.372 201.525 317.671 198.994 316.873ZM201.574 322.726C200.873 324.952 198.504 326.186 196.281 325.485C194.058 324.784 192.823 322.416 193.525 320.19C194.226 317.967 196.595 316.732 198.82 317.434C201.04 318.134 202.275 320.503 201.574 322.726Z" fill="#2957E3"/>
<path d="M196.488 331.305L192.773 330.134L192.149 332.829L195.454 333.87L196.488 331.305Z" fill="#2957E3"/>
<path d="M189.811 327.825L188.011 324.37L185.665 325.835L187.265 328.908L189.811 327.825Z" fill="#2957E3"/>
<path d="M187.55 320.642L188.72 316.927L186.026 316.304L184.984 319.608L187.55 320.642Z" fill="#2957E3"/>
<path d="M191.03 313.965L194.485 312.166L193.02 309.819L189.947 311.42L191.03 313.965Z" fill="#2957E3"/>
<path d="M198.212 311.704L201.928 312.875L202.551 310.18L199.247 309.139L198.212 311.704Z" fill="#2957E3"/>
<path d="M204.891 315.184L206.69 318.639L209.037 317.175L207.436 314.102L204.891 315.184Z" fill="#2957E3"/>
<path d="M207.151 322.367L205.98 326.082L208.675 326.706L209.716 323.401L207.151 322.367Z" fill="#2957E3"/>
<path d="M203.672 329.044L200.216 330.844L201.681 333.19L204.754 331.59L203.672 329.044Z" fill="#2957E3"/>
<path d="M215.335 331.012C213.837 330.036 211.832 330.461 210.857 331.957C209.88 333.457 210.306 335.46 211.804 336.436C213.301 337.411 215.303 336.987 216.279 335.489C217.254 333.993 216.832 331.987 215.335 331.012ZM215.95 335.274C215.093 336.591 213.333 336.963 212.018 336.106C210.703 335.25 210.331 333.49 211.188 332.174C212.044 330.859 213.804 330.487 215.12 331.344C216.434 332.2 216.806 333.959 215.95 335.274ZM215.335 331.012C213.837 330.036 211.832 330.461 210.857 331.957C209.88 333.457 210.306 335.46 211.804 336.436C213.301 337.411 215.303 336.987 216.279 335.489C217.254 333.993 216.832 331.987 215.335 331.012ZM215.95 335.274C215.093 336.591 213.333 336.963 212.018 336.106C210.703 335.25 210.331 333.49 211.188 332.174C212.044 330.859 213.804 330.487 215.12 331.344C216.434 332.2 216.806 333.959 215.95 335.274ZM215.335 331.012C213.837 330.036 211.832 330.461 210.857 331.957C209.88 333.457 210.306 335.46 211.804 336.436C213.301 337.411 215.303 336.987 216.279 335.489C217.254 333.993 216.832 331.987 215.335 331.012ZM215.95 335.274C215.093 336.591 213.333 336.963 212.018 336.106C210.703 335.25 210.331 333.49 211.188 332.174C212.044 330.859 213.804 330.487 215.12 331.344C216.434 332.2 216.806 333.959 215.95 335.274ZM217.292 328.009C214.132 325.953 209.908 326.848 207.852 330.003C205.797 333.16 206.688 337.386 209.846 339.441C213.001 341.495 217.228 340.602 219.283 337.446C221.339 334.291 220.447 330.063 217.292 328.009ZM216.702 335.764C215.576 337.493 213.256 337.984 211.529 336.859C209.802 335.734 209.31 333.414 210.436 331.685C211.562 329.956 213.883 329.467 215.61 330.592C217.336 331.716 217.827 334.036 216.702 335.764ZM216.279 335.489C217.254 333.992 216.832 331.988 215.335 331.013C213.837 330.037 211.832 330.462 210.857 331.958C209.88 333.458 210.306 335.461 211.804 336.437C213.301 337.412 215.303 336.987 216.279 335.489ZM215.95 335.274C215.093 336.591 213.333 336.963 212.018 336.106C210.703 335.25 210.331 333.49 211.188 332.174C212.044 330.859 213.804 330.487 215.12 331.344C216.434 332.2 216.806 333.959 215.95 335.274ZM215.335 331.012C213.837 330.036 211.832 330.461 210.857 331.957C209.88 333.457 210.306 335.46 211.804 336.436C213.301 337.411 215.303 336.987 216.279 335.489C217.254 333.993 216.832 331.987 215.335 331.012ZM215.95 335.274C215.093 336.591 213.333 336.963 212.018 336.106C210.703 335.25 210.331 333.49 211.188 332.174C212.044 330.859 213.804 330.487 215.12 331.344C216.434 332.2 216.806 333.959 215.95 335.274ZM215.335 331.012C213.837 330.036 211.832 330.461 210.857 331.957C209.88 333.457 210.306 335.46 211.804 336.436C213.301 337.411 215.303 336.987 216.279 335.489C217.254 333.993 216.832 331.987 215.335 331.012ZM215.95 335.274C215.093 336.591 213.333 336.963 212.018 336.106C210.703 335.25 210.331 333.49 211.188 332.174C212.044 330.859 213.804 330.487 215.12 331.344C216.434 332.2 216.806 333.959 215.95 335.274Z" fill="#EBF2FF"/>
<path d="M211.101 339.918L208.903 338.487L208.012 340.122L209.967 341.395L211.101 339.918Z" fill="#EBF2FF"/>
<path d="M207.399 336.454L206.857 333.888L205.07 334.414L205.553 336.696L207.399 336.454Z" fill="#EBF2FF"/>
<path d="M207.232 331.387L208.663 329.189L207.028 328.298L205.755 330.253L207.232 331.387Z" fill="#EBF2FF"/>
<path d="M210.696 327.686L213.262 327.144L212.736 325.358L210.454 325.84L210.696 327.686Z" fill="#EBF2FF"/>
<path d="M215.764 327.519L217.961 328.95L218.853 327.315L216.898 326.042L215.764 327.519Z" fill="#EBF2FF"/>
<path d="M219.464 330.983L220.006 333.549L221.792 333.023L221.31 330.741L219.464 330.983Z" fill="#EBF2FF"/>
<path d="M219.631 336.05L218.2 338.248L219.835 339.139L221.108 337.184L219.631 336.05Z" fill="#EBF2FF"/>
<path d="M216.168 339.751L213.602 340.293L214.127 342.079L216.41 341.597L216.168 339.751Z" fill="#EBF2FF"/>
<path d="M263.095 358.414L266.277 359.006L275.376 297.379L271.751 296.713L263.095 358.414Z" fill="#2957E3"/>
<path d="M235.222 348.648L239.947 307.471L271.751 296.713C271.751 296.713 263.095 359.08 263.095 358.414L235.222 348.648Z" fill="#2957E3"/>
<path opacity="0.4" d="M235.222 348.648L239.947 307.471L271.751 296.713C271.751 296.713 263.095 359.08 263.095 358.414L235.222 348.648Z" fill="#FBFCFF"/>
<path d="M158.14 309.139C157.622 305.728 157.342 302.289 157.129 298.847C157.031 297.125 156.987 295.401 156.949 293.677C156.915 291.953 156.885 290.227 156.936 288.502L156.95 288.049L157.391 288.025C163.709 287.686 170.023 287.271 176.345 286.995C182.665 286.683 188.985 286.4 195.31 286.202C189.005 286.773 182.697 287.259 176.387 287.717C170.079 288.21 163.764 288.564 157.453 288.994L157.907 288.517L157.881 293.667L157.941 298.819C157.95 300.538 157.981 302.256 158.031 303.975L158.14 309.139Z" fill="#FBFCFF"/>
<path d="M244.382 308.075C246.352 307.139 248.353 306.269 250.378 305.466C252.397 304.644 254.434 303.866 256.495 303.152C258.559 302.447 260.63 301.757 262.736 301.172C264.838 300.58 266.96 300.033 269.128 299.678L269.661 299.591L269.566 300.1C269.067 302.766 268.545 305.428 267.928 308.075C268.159 305.367 268.485 302.673 268.834 299.984L269.272 300.406C267.171 300.907 265.087 301.493 263.009 302.107C260.933 302.728 258.863 303.382 256.799 304.054L244.382 308.075Z" fill="#FBFCFF"/>
<path opacity="0.1" d="M171.903 285.122L172.439 295.421L172.897 305.723L173.691 326.331L174.312 346.945L174.56 357.254L174.73 367.566L174.193 357.267L173.735 346.965L172.942 326.357L172.323 305.743L172.074 295.434L171.903 285.122Z" fill="#0A111F"/>
<path opacity="0.1" d="M168.954 291.33C169.152 292.217 168.626 293.275 167.625 293.569C167.14 293.715 166.572 293.667 166.099 293.397C165.626 293.128 165.277 292.638 165.165 292.094C165.058 291.549 165.188 290.961 165.52 290.53C165.85 290.097 166.358 289.832 166.861 289.779C167.899 289.663 168.793 290.437 168.954 291.33ZM168.954 291.33C168.859 290.882 168.571 290.481 168.18 290.265C167.788 290.049 167.325 290.022 166.935 290.149C166.132 290.41 165.747 291.255 165.899 291.947C166.026 292.642 166.708 293.277 167.551 293.204C167.959 293.169 168.376 292.965 168.653 292.613C168.931 292.262 169.04 291.78 168.954 291.33Z" fill="#0A111F"/>
<path opacity="0.1" d="M169.663 303.679C169.861 304.566 169.335 305.624 168.334 305.918C167.849 306.064 167.281 306.016 166.808 305.746C166.335 305.477 165.986 304.987 165.874 304.443C165.767 303.898 165.897 303.31 166.229 302.879C166.559 302.446 167.067 302.181 167.57 302.128C168.608 302.012 169.502 302.786 169.663 303.679ZM169.663 303.679C169.568 303.231 169.28 302.83 168.889 302.614C168.497 302.398 168.034 302.371 167.644 302.498C166.841 302.759 166.456 303.605 166.608 304.296C166.735 304.991 167.417 305.626 168.26 305.553C168.668 305.518 169.085 305.313 169.363 304.962C169.64 304.611 169.75 304.129 169.663 303.679Z" fill="#0A111F"/>
<path opacity="0.1" d="M170.113 316.788C170.311 317.675 169.785 318.733 168.784 319.027C168.299 319.173 167.731 319.125 167.258 318.855C166.785 318.586 166.436 318.096 166.324 317.552C166.217 317.008 166.347 316.419 166.679 315.988C167.009 315.554 167.517 315.29 168.02 315.237C169.058 315.121 169.952 315.895 170.113 316.788ZM170.113 316.788C170.018 316.34 169.73 315.939 169.339 315.723C168.947 315.507 168.484 315.48 168.094 315.607C167.291 315.868 166.906 316.713 167.058 317.404C167.185 318.1 167.867 318.734 168.71 318.661C169.118 318.626 169.535 318.422 169.812 318.07C170.09 317.719 170.199 317.238 170.113 316.788Z" fill="#0A111F"/>
<path opacity="0.1" d="M170.563 329.896C170.761 330.783 170.235 331.841 169.234 332.135C168.749 332.281 168.181 332.233 167.708 331.963C167.235 331.694 166.886 331.204 166.774 330.66C166.667 330.115 166.797 329.527 167.129 329.096C167.459 328.663 167.966 328.398 168.47 328.345C169.508 328.229 170.402 329.003 170.563 329.896ZM170.563 329.896C170.468 329.448 170.181 329.047 169.789 328.831C169.397 328.615 168.934 328.588 168.544 328.715C167.741 328.976 167.356 329.821 167.508 330.513C167.635 331.208 168.317 331.843 169.16 331.77C169.568 331.735 169.985 331.531 170.262 331.179C170.54 330.828 170.649 330.346 170.563 329.896Z" fill="#0A111F"/>
<path opacity="0.1" d="M171.012 343.005C171.21 343.892 170.684 344.95 169.683 345.244C169.198 345.39 168.63 345.342 168.157 345.072C167.684 344.803 167.335 344.313 167.223 343.769C167.116 343.224 167.246 342.636 167.578 342.205C167.908 341.772 168.416 341.507 168.919 341.454C169.957 341.338 170.851 342.111 171.012 343.005ZM171.012 343.005C170.917 342.557 170.629 342.156 170.238 341.94C169.846 341.724 169.383 341.697 168.993 341.824C168.19 342.085 167.805 342.93 167.957 343.622C168.084 344.318 168.766 344.952 169.609 344.879C170.017 344.844 170.434 344.64 170.712 344.288C170.989 343.936 171.098 343.454 171.012 343.005Z" fill="#0A111F"/>
<path opacity="0.1" d="M171.462 356.113C171.66 357 171.134 358.058 170.133 358.352C169.648 358.498 169.08 358.45 168.607 358.18C168.134 357.911 167.785 357.421 167.673 356.877C167.566 356.333 167.696 355.744 168.028 355.313C168.358 354.879 168.865 354.615 169.369 354.562C170.407 354.446 171.3 355.22 171.462 356.113ZM171.462 356.113C171.367 355.665 171.079 355.264 170.688 355.048C170.296 354.832 169.833 354.805 169.443 354.932C168.64 355.193 168.255 356.038 168.407 356.73C168.534 357.426 169.216 358.06 170.059 357.987C170.467 357.952 170.884 357.747 171.161 357.396C171.439 357.044 171.548 356.563 171.462 356.113Z" fill="#0A111F"/>
<path d="M175.509 376.158L128.634 390.362L130.293 395.839L177.168 381.635L175.509 376.158Z" fill="#2957E3"/>
<path opacity="0.4" d="M175.509 376.158L128.634 390.362L130.293 395.839L177.168 381.635L175.509 376.158Z" fill="#FBFCFF"/>
<path d="M153.082 381.094L147.628 382.829L150.205 390.931L155.659 389.196L153.082 381.094Z" fill="#2957E3"/>
<path d="M129.927 403.863L117.831 351.484L81.3213 360.14L99.2993 411.187L129.927 403.863Z" fill="#2957E3"/>
<path d="M138.028 401.2L129.927 403.863L117.831 351.484L129.483 354.258L138.028 401.2Z" fill="#2957E3"/>
<path opacity="0.2" d="M138.028 401.2L129.927 403.863L117.831 351.484L129.483 354.258L138.028 401.2Z" fill="#0A111F"/>
<path d="M176.359 385.108C179.791 385.108 182.574 382.326 182.574 378.894C182.574 375.462 179.791 372.68 176.359 372.68C172.928 372.68 170.146 375.462 170.146 378.894C170.146 382.326 172.928 385.108 176.359 385.108Z" fill="#2957E3"/>
<path d="M240.303 376.006L238.632 381.479L285.477 395.782L287.148 390.308L240.303 376.006Z" fill="#2957E3"/>
<path opacity="0.4" d="M240.303 376.006L238.632 381.479L285.477 395.782L287.148 390.308L240.303 376.006Z" fill="#FBFCFF"/>
<path d="M262.762 380.967L260.168 389.062L265.618 390.809L268.212 382.714L262.762 380.967Z" fill="#2957E3"/>
<path d="M285.857 403.818L298.065 351.464L334.556 360.198L316.47 411.207L285.857 403.818Z" fill="#2957E3"/>
<path d="M277.763 401.137L285.858 403.818L298.066 351.464L286.408 354.214L277.763 401.137Z" fill="#2957E3"/>
<path opacity="0.2" d="M277.763 401.137L285.858 403.818L298.066 351.464L286.408 354.214L277.763 401.137Z" fill="#0A111F"/>
<path d="M233.265 378.737C233.258 382.169 236.034 384.957 239.466 384.965C242.898 384.972 245.686 382.196 245.694 378.764C245.701 375.332 242.925 372.544 239.493 372.536C236.06 372.528 233.272 375.305 233.265 378.737Z" fill="#2957E3"/>
<path d="M280.164 314.132C280.311 313.994 295.367 300.029 313.079 304.806C331.191 309.693 346.145 336.973 346.293 337.249L351.327 334.528C350.673 333.317 335.076 304.804 314.568 299.282C293.711 293.657 276.926 309.316 276.221 309.986L280.164 314.132Z" fill="#2957E3"/>
<path opacity="0.4" d="M280.164 314.132C280.311 313.994 295.367 300.029 313.079 304.806C331.191 309.693 346.145 336.973 346.293 337.249L351.327 334.528C350.673 333.317 335.076 304.804 314.568 299.282C293.711 293.657 276.926 309.316 276.221 309.986L280.164 314.132Z" fill="#FBFCFF"/>
<path d="M339.619 364.712L350.465 358.986C349.424 357.015 348.142 353.627 347.956 350.568C347.715 346.604 349.288 345.21 351.023 344.293C354.823 342.286 357.091 343.082 358.64 343.994C360.813 345.277 363.023 347.902 364.862 351.386L375.708 345.66C372.74 340.038 369.095 335.924 364.874 333.432C360.663 330.95 353.849 328.933 345.297 333.447C338.631 336.966 335.228 343.311 335.715 351.312C336.097 357.608 338.8 363.16 339.619 364.712Z" fill="#2957E3"/>
<path d="M282.449 295.022C284.8 293.398 287.206 291.868 289.621 290.352C292.03 288.827 294.479 287.369 296.928 285.911C299.389 284.474 301.851 283.039 304.353 281.67L308.107 279.62C309.377 278.968 310.629 278.287 311.915 277.661C310.745 278.482 309.542 279.247 308.356 280.042L304.744 282.332C302.334 283.857 299.886 285.315 297.436 286.771C294.974 288.207 292.512 289.642 290.01 291.01C287.514 292.39 285.009 293.753 282.449 295.022Z" fill="#112350"/>
<path d="M276.221 318.423C279.587 320.341 282.778 322.506 285.926 324.731C289.056 326.981 292.142 329.292 295.05 331.852C291.682 329.936 288.492 327.771 285.345 325.544C282.217 323.293 279.131 320.982 276.221 318.423Z" fill="#112350"/>
<path d="M281.75 315.545C284.348 316.334 286.906 317.226 289.457 318.133C292.013 319.029 294.541 319.999 297.068 320.969C299.587 321.961 302.105 322.955 304.595 324.021L308.329 325.623C309.56 326.191 310.804 326.727 312.024 327.324C310.722 326.939 309.442 326.493 308.151 326.08L304.316 324.738C301.76 323.841 299.232 322.872 296.706 321.901C294.188 320.908 291.669 319.914 289.18 318.847C286.686 317.79 284.199 316.719 281.75 315.545Z" fill="#112350"/>
<path d="M289.131 297.217C291.621 296.57 294.129 296.031 296.641 295.508C299.15 294.974 301.674 294.518 304.197 294.061C306.724 293.628 309.252 293.197 311.793 292.842L315.605 292.313C316.882 292.173 318.153 291.999 319.436 291.889C318.193 292.223 316.939 292.493 315.69 292.796L311.926 293.599C309.416 294.132 306.893 294.589 304.37 295.044C301.842 295.475 299.315 295.907 296.774 296.261C294.235 296.628 291.692 296.977 289.131 297.217Z" fill="#112350"/>
<path d="M229.122 312.787C229.544 310.764 230.223 308.792 231.101 306.912C231.98 305.034 233.056 303.233 234.406 301.632C235.76 300.048 237.426 298.651 239.431 297.878C241.436 297.131 243.731 297.137 245.742 297.94C247.777 298.733 249.382 300.443 250.247 302.409C250.696 303.391 250.977 304.444 251.093 305.521C251.194 306.596 251.151 307.714 250.723 308.788C250.505 309.316 250.164 309.849 249.618 310.204C249.354 310.388 249.031 310.493 248.714 310.542C248.402 310.587 248.082 310.573 247.718 310.447C247.049 310.162 246.714 309.624 246.426 309.139C246.169 308.635 245.971 308.119 245.836 307.598C245.274 305.511 245.217 303.388 245.316 301.289C245.614 297.108 246.712 292.926 248.965 289.328C250.102 287.55 251.528 285.913 253.301 284.717C255.051 283.513 257.1 282.684 259.192 282.444C260.221 282.195 261.284 282.218 262.335 282.167C262.862 282.111 263.385 282.239 263.91 282.266C264.431 282.335 264.965 282.326 265.472 282.477C267.55 282.85 269.503 283.684 271.327 284.693C273.14 285.738 274.755 287.08 276.229 288.536C277.69 290.007 279.019 291.616 280.087 293.388C277.722 290.013 274.677 287.083 271.087 285.121C269.28 284.182 267.371 283.411 265.36 283.099C264.869 282.962 264.354 282.986 263.852 282.93C263.347 282.915 262.844 282.8 262.338 282.868C261.329 282.942 260.313 282.937 259.328 283.202C257.312 283.486 255.442 284.297 253.796 285.427C252.142 286.559 250.808 288.112 249.736 289.812C247.613 293.251 246.573 297.313 246.314 301.349C246.201 303.366 246.252 305.428 246.756 307.344C246.997 308.26 247.43 309.292 248.061 309.581C248.142 309.589 248.196 309.632 248.294 309.635C248.392 309.627 248.497 309.649 248.59 309.625C248.78 309.594 248.965 309.543 249.124 309.429C249.452 309.223 249.712 308.857 249.887 308.437C250.238 307.587 250.302 306.579 250.214 305.608C250.116 304.631 249.866 303.661 249.462 302.761C248.671 300.962 247.268 299.408 245.45 298.646C243.642 297.878 241.525 297.816 239.648 298.469C237.762 299.146 236.133 300.446 234.775 301.953C232.05 305.003 230.213 308.818 229.122 312.787Z" fill="#112350"/>
<path d="M136.717 338.703C137.682 336.884 139.101 335.31 140.758 334.066C142.413 332.822 144.313 331.857 146.358 331.384C148.392 330.897 150.577 330.889 152.612 331.507C154.648 332.116 156.482 333.31 157.95 334.831C159.428 336.351 160.533 338.197 161.292 340.16C162.037 342.127 162.484 344.234 162.326 346.389C162.219 347.449 162.004 348.594 161.165 349.511C160.749 349.962 160.107 350.26 159.48 350.27C158.878 350.264 158.309 350.175 157.757 349.88C157.208 349.597 156.768 349.105 156.517 348.561C156.262 348.016 156.167 347.439 156.141 346.881C156.101 345.761 156.343 344.697 156.672 343.685C157.343 341.658 158.445 339.832 159.733 338.177C161.028 336.524 162.552 335.052 164.26 333.826C167.648 331.366 171.964 329.999 176.174 330.55C178.252 330.831 180.314 331.431 182.133 332.491C183.968 333.516 185.559 334.939 186.856 336.565C188.152 338.198 189.162 340.033 189.94 341.945C190.718 343.858 191.292 345.855 191.574 347.893C190.734 343.886 189.086 339.994 186.461 336.888C185.161 335.336 183.594 334.004 181.816 333.065C180.053 332.092 178.075 331.57 176.084 331.347C172.084 330.912 168.026 332.187 164.799 334.575C161.576 336.946 158.939 340.255 157.606 343.998C157.292 344.931 157.073 345.907 157.102 346.847C157.124 347.78 157.452 348.676 158.201 349.054C158.554 349.257 159.033 349.336 159.451 349.343C159.856 349.332 160.216 349.171 160.505 348.872C161.089 348.263 161.339 347.267 161.428 346.311C161.585 344.357 161.181 342.336 160.482 340.469C159.774 338.597 158.722 336.851 157.362 335.39C156.005 333.931 154.295 332.793 152.403 332.174C150.514 331.545 148.443 331.493 146.475 331.91C142.538 332.747 138.89 335.209 136.717 338.703Z" fill="#112350"/>
<path d="M90.4538 97.2081C90.3408 93.0931 89.4678 88.9501 87.5527 85.3401C86.5938 83.5521 85.3217 81.9001 83.6517 80.7931C81.9847 79.7111 79.9147 79.2661 77.9757 79.5801C76.0287 79.8861 74.2957 81.0611 73.0977 82.6181C72.4907 83.3961 72.0157 84.2771 71.6877 85.2031C71.3697 86.1251 71.1917 87.1191 71.3298 88.0281C71.3988 88.4771 71.5637 88.8941 71.8337 89.1731C71.9617 89.3221 72.1287 89.4151 72.3057 89.4911C72.3907 89.5361 72.4977 89.5401 72.5907 89.5711C72.6867 89.5911 72.7488 89.5621 72.8298 89.5741C73.5107 89.4441 74.1787 88.5451 74.6307 87.7131C75.5777 85.9731 76.1197 83.9821 76.4907 81.9971C77.2017 78.0161 77.1617 73.8231 75.9207 69.9771C75.2867 68.0701 74.3608 66.2431 73.0247 64.7501C71.6957 63.2601 70.0737 62.0261 68.1837 61.2691C67.2907 60.7771 66.3027 60.5401 65.3407 60.2261C64.8657 60.0401 64.3498 60.0321 63.8558 59.9251C63.3548 59.8601 62.8607 59.7141 62.3507 59.7291C60.3237 59.5521 58.2857 59.8451 56.3067 60.3261C52.3517 61.3751 48.6957 63.4931 45.5938 66.2061C47.0538 64.7411 48.7277 63.4951 50.4977 62.4151C52.2767 61.3531 54.1648 60.4361 56.1748 59.8531C58.1858 59.3081 60.2827 58.9641 62.3887 59.0981C62.9177 59.0721 63.4327 59.2091 63.9557 59.2661C64.4718 59.3641 65.0108 59.3651 65.5088 59.5451C66.5168 59.8461 67.5558 60.0771 68.4948 60.5641C70.4688 61.2961 72.2607 62.5901 73.6727 64.1771C75.1087 65.7611 76.1027 67.6911 76.7827 69.6891C78.1117 73.7201 78.1797 78.0441 77.4707 82.1751C77.0667 84.2371 76.5037 86.2851 75.4607 88.1781C75.2047 88.6521 74.8887 89.1061 74.5197 89.5341C74.1247 89.9361 73.6707 90.3791 72.9538 90.4961C72.5697 90.5311 72.2567 90.4681 71.9637 90.3501C71.6677 90.2261 71.3787 90.0481 71.1667 89.8061C70.7217 89.3311 70.5167 88.7321 70.4317 88.1681C70.2717 87.0241 70.4967 85.9281 70.8517 84.9071C71.2207 83.8881 71.7457 82.9331 72.4157 82.0871C73.7247 80.3851 75.6917 79.1071 77.8568 78.8231C80.0018 78.5231 82.2317 79.0651 84.0007 80.2701C85.7627 81.4991 87.0477 83.2541 87.9847 85.1151C88.9137 86.9921 89.5277 88.9981 89.9337 91.0311C90.3377 93.0651 90.5268 95.1421 90.4538 97.2081Z" fill="#112350"/>
<path d="M311.27 149.371C307.242 148.521 303.009 148.403 299.052 149.423C297.09 149.939 295.187 150.79 293.72 152.155C292.279 153.523 291.363 155.433 291.216 157.392C291.059 159.356 291.797 161.316 293.032 162.844C293.646 163.616 294.393 164.283 295.216 164.818C296.038 165.342 296.964 165.748 297.88 165.826C298.333 165.863 298.777 165.8 299.111 165.603C299.285 165.514 299.415 165.373 299.53 165.219C299.594 165.147 299.623 165.044 299.675 164.961C299.717 164.873 299.703 164.805 299.734 164.73C299.767 164.037 299.048 163.178 298.345 162.545C296.874 161.219 295.064 160.227 293.221 159.403C289.516 157.783 285.429 156.843 281.399 157.152C279.397 157.324 277.405 157.798 275.641 158.748C273.882 159.692 272.303 160.982 271.126 162.643C270.439 163.397 269.978 164.302 269.449 165.164C269.157 165.583 269.029 166.082 268.81 166.538C268.629 167.01 268.372 167.456 268.269 167.955C267.624 169.885 267.433 171.935 267.439 173.971C267.536 178.061 268.743 182.111 270.657 185.761C269.573 184 268.752 182.081 268.115 180.108C267.498 178.13 267.046 176.08 266.949 173.989C266.889 171.906 267.043 169.787 267.665 167.77C267.763 167.25 268.016 166.78 268.194 166.285C268.41 165.806 268.537 165.282 268.828 164.84C269.356 163.93 269.823 162.974 270.516 162.174C271.689 160.425 273.365 158.985 275.237 157.982C277.113 156.955 279.221 156.439 281.323 156.244C285.553 155.893 289.774 156.835 293.625 158.488C295.536 159.362 297.396 160.387 298.993 161.844C299.395 162.203 299.762 162.616 300.092 163.076C300.391 163.553 300.715 164.098 300.662 164.823C300.607 165.204 300.472 165.495 300.289 165.752C300.1 166.011 299.858 166.25 299.574 166.4C299.009 166.722 298.378 166.781 297.809 166.732C296.659 166.62 295.646 166.146 294.736 165.563C293.832 164.966 293.025 164.233 292.358 163.384C291.008 161.714 290.225 159.503 290.453 157.332C290.662 155.177 291.71 153.134 293.293 151.695C294.899 150.268 296.905 149.429 298.934 148.952C300.976 148.487 303.07 148.357 305.142 148.437C307.215 148.517 309.278 148.818 311.27 149.371Z" fill="#112350"/>
<path d="M249.36 84.671C248.676 82.302 248.584 79.768 248.969 77.321C249.352 74.874 250.181 72.467 251.535 70.359C252.869 68.249 254.73 66.424 256.981 65.261C259.226 64.089 261.784 63.58 264.302 63.657C266.827 63.725 269.309 64.379 271.594 65.421C273.869 66.478 276.007 67.906 277.662 69.87C278.451 70.859 279.213 72.012 279.259 73.46C279.279 74.175 278.989 74.939 278.476 75.457C277.968 75.943 277.413 76.338 276.714 76.541C276.026 76.752 275.261 76.7 274.606 76.45C273.947 76.202 273.392 75.795 272.911 75.345C271.952 74.431 271.273 73.325 270.712 72.189C269.598 69.904 269.012 67.426 268.73 64.939C268.455 62.448 268.526 59.919 268.959 57.448C269.795 52.52 272.335 47.761 276.38 44.713C278.385 43.216 280.642 42.004 283.078 41.387C285.498 40.726 288.044 40.609 290.512 40.91C292.985 41.216 295.385 41.933 297.654 42.912C299.923 43.892 302.089 45.114 304.044 46.614C299.982 43.866 295.313 41.898 290.456 41.418C288.039 41.172 285.573 41.337 283.253 42.02C280.918 42.66 278.775 43.869 276.873 45.347C274.993 46.852 273.393 48.703 272.224 50.808C271.045 52.908 270.275 55.229 269.868 57.607C269.089 62.355 269.592 67.412 271.597 71.759C272.114 72.828 272.747 73.855 273.573 74.648C274.383 75.438 275.452 75.956 276.453 75.639C276.945 75.511 277.429 75.172 277.807 74.814C278.161 74.451 278.345 73.981 278.339 73.464C278.326 72.414 277.693 71.343 276.963 70.442C275.448 68.622 273.401 67.227 271.229 66.209C269.045 65.196 266.671 64.577 264.272 64.468C261.876 64.358 259.446 64.819 257.297 65.884C255.143 66.938 253.321 68.639 251.985 70.653C249.317 74.687 248.271 79.864 249.36 84.671Z" fill="#112350"/>
<path d="M133.374 338.922C131.133 338.216 128.746 339.46 128.04 341.699C127.333 343.942 128.578 346.327 130.819 347.034C133.058 347.74 135.443 346.497 136.149 344.256C136.855 342.017 135.613 339.627 133.374 338.922ZM135.656 344.099C135.036 346.068 132.94 347.16 130.974 346.54C129.007 345.92 127.915 343.825 128.536 341.856C129.156 339.889 131.251 338.797 133.22 339.418C135.184 340.037 136.276 342.132 135.656 344.099ZM133.374 338.922C131.133 338.216 128.746 339.46 128.04 341.699C127.333 343.942 128.578 346.327 130.819 347.034C133.058 347.74 135.443 346.497 136.149 344.256C136.855 342.017 135.613 339.627 133.374 338.922ZM135.656 344.099C135.036 346.068 132.94 347.16 130.974 346.54C129.007 345.92 127.915 343.825 128.536 341.856C129.156 339.889 131.251 338.797 133.22 339.418C135.184 340.037 136.276 342.132 135.656 344.099ZM133.374 338.922C131.133 338.216 128.746 339.46 128.04 341.699C127.333 343.942 128.578 346.327 130.819 347.034C133.058 347.74 135.443 346.497 136.149 344.256C136.855 342.017 135.613 339.627 133.374 338.922ZM135.656 344.099C135.036 346.068 132.94 347.16 130.974 346.54C129.007 345.92 127.915 343.825 128.536 341.856C129.156 339.889 131.251 338.797 133.22 339.418C135.184 340.037 136.276 342.132 135.656 344.099ZM134.791 334.429C130.066 332.941 125.035 335.566 123.547 340.284C122.06 345.004 124.68 350.039 129.402 351.526C134.12 353.012 139.155 350.391 140.642 345.67C142.131 340.953 139.51 335.915 134.791 334.429ZM136.781 344.453C135.966 347.039 133.203 348.479 130.62 347.665C128.037 346.851 126.596 344.087 127.411 341.502C128.226 338.917 130.991 337.479 133.574 338.293C136.155 339.106 137.595 341.87 136.781 344.453ZM136.149 344.255C136.855 342.016 135.613 339.627 133.374 338.921C131.133 338.215 128.746 339.459 128.04 341.698C127.333 343.941 128.578 346.326 130.819 347.033C133.058 347.739 135.443 346.496 136.149 344.255ZM135.656 344.099C135.036 346.068 132.94 347.16 130.974 346.54C129.007 345.92 127.915 343.825 128.536 341.856C129.156 339.889 131.251 338.797 133.22 339.418C135.184 340.037 136.276 342.132 135.656 344.099ZM133.374 338.922C131.133 338.216 128.746 339.46 128.04 341.699C127.333 343.942 128.578 346.327 130.819 347.034C133.058 347.74 135.443 346.497 136.149 344.256C136.855 342.017 135.613 339.627 133.374 338.922ZM135.656 344.099C135.036 346.068 132.94 347.16 130.974 346.54C129.007 345.92 127.915 343.825 128.536 341.856C129.156 339.889 131.251 338.797 133.22 339.418C135.184 340.037 136.276 342.132 135.656 344.099ZM133.374 338.922C131.133 338.216 128.746 339.46 128.04 341.699C127.333 343.942 128.578 346.327 130.819 347.034C133.058 347.74 135.443 346.497 136.149 344.256C136.855 342.017 135.613 339.627 133.374 338.922ZM135.656 344.099C135.036 346.068 132.94 347.16 130.974 346.54C129.007 345.92 127.915 343.825 128.536 341.856C129.156 339.889 131.251 338.797 133.22 339.418C135.184 340.037 136.276 342.132 135.656 344.099Z" fill="#161729"/>
<path d="M131.157 351.688L127.87 350.653L127.319 353.037L130.242 353.958L131.157 351.688Z" fill="#161729"/>
<path d="M125.25 348.61L123.658 345.553L121.583 346.849L122.998 349.568L125.25 348.61Z" fill="#161729"/>
<path d="M123.25 342.256L124.286 338.969L121.902 338.418L120.981 341.341L123.25 342.256Z" fill="#161729"/>
<path d="M126.329 336.349L129.385 334.757L128.089 332.681L125.371 334.097L126.329 336.349Z" fill="#161729"/>
<path d="M132.683 334.349L135.97 335.384L136.522 333.001L133.598 332.08L132.683 334.349Z" fill="#161729"/>
<path d="M138.59 337.427L140.182 340.484L142.258 339.188L140.842 336.47L138.59 337.427Z" fill="#161729"/>
<path d="M140.591 343.781L139.555 347.068L141.939 347.62L142.86 344.696L140.591 343.781Z" fill="#161729"/>
<path d="M137.511 349.688L134.454 351.28L135.75 353.356L138.469 351.94L137.511 349.688Z" fill="#161729"/>
<path d="M299.175 310.349C303.683 304.275 302.413 295.694 296.339 291.187C290.263 286.678 281.682 287.948 277.175 294.021C272.666 300.097 273.936 308.678 280.012 313.187C286.085 317.695 294.666 316.426 299.175 310.349ZM293.312 305.998C291.205 308.837 287.2 309.43 284.363 307.325C281.524 305.218 280.931 301.213 283.038 298.373C285.143 295.536 289.149 294.943 291.988 297.05C294.824 299.156 295.417 303.161 293.312 305.998Z" fill="#112350"/>
<path d="M282.464 314.299L278.234 311.16L276.246 314.328L280.008 317.12L282.464 314.299Z" fill="#112350"/>
<path d="M275.471 306.899L274.699 301.688L271.053 302.522L271.739 307.157L275.471 306.899Z" fill="#112350"/>
<path d="M275.757 296.721L278.897 292.491L275.729 290.503L272.938 294.265L275.757 296.721Z" fill="#112350"/>
<path d="M283.158 289.728L288.369 288.956L287.535 285.31L282.9 285.996L283.158 289.728Z" fill="#112350"/>
<path d="M293.337 290.015L297.567 293.155L299.555 289.987L295.793 287.195L293.337 290.015Z" fill="#112350"/>
<path d="M300.33 297.416L301.101 302.627L304.747 301.793L304.061 297.158L300.33 297.416Z" fill="#112350"/>
<path d="M300.042 307.594L296.902 311.824L300.07 313.812L302.862 310.05L300.042 307.594Z" fill="#112350"/>
<path d="M292.642 314.587L287.431 315.358L288.265 319.004L292.9 318.319L292.642 314.587Z" fill="#112350"/>
<path d="M283.268 302.843L286.178 306.513L290.812 305.825L292.532 301.472L289.625 297.804L284.991 298.488L283.268 302.843ZM288.784 300.965C289.444 301.455 289.581 302.382 289.091 303.042C288.603 303.699 287.674 303.839 287.014 303.349C286.357 302.861 286.219 301.929 286.707 301.272C287.197 300.613 288.127 300.478 288.784 300.965Z" fill="#112350"/>
<path d="M309.444 43.6012C307.483 42.9832 305.394 44.0722 304.776 46.0312C304.158 47.9942 305.247 50.0812 307.208 50.6992C309.167 51.3172 311.254 50.2292 311.872 48.2682C312.49 46.3092 311.403 44.2182 309.444 43.6012ZM311.441 48.1312C310.898 49.8542 309.065 50.8092 307.343 50.2672C305.622 49.7252 304.667 47.8912 305.209 46.1682C305.751 44.4472 307.585 43.4922 309.308 44.0342C311.028 44.5762 311.984 46.4102 311.441 48.1312ZM309.444 43.6012C307.483 42.9832 305.394 44.0722 304.776 46.0312C304.158 47.9942 305.247 50.0812 307.208 50.6992C309.167 51.3172 311.254 50.2292 311.872 48.2682C312.49 46.3092 311.403 44.2182 309.444 43.6012ZM311.441 48.1312C310.898 49.8542 309.065 50.8092 307.343 50.2672C305.622 49.7252 304.667 47.8912 305.209 46.1682C305.751 44.4472 307.585 43.4922 309.308 44.0342C311.028 44.5762 311.984 46.4102 311.441 48.1312ZM309.444 43.6012C307.483 42.9832 305.394 44.0722 304.776 46.0312C304.158 47.9942 305.247 50.0812 307.208 50.6992C309.167 51.3172 311.254 50.2292 311.872 48.2682C312.49 46.3092 311.403 44.2182 309.444 43.6012ZM311.441 48.1312C310.898 49.8542 309.065 50.8092 307.343 50.2672C305.622 49.7252 304.667 47.8912 305.209 46.1682C305.751 44.4472 307.585 43.4922 309.308 44.0342C311.028 44.5762 311.984 46.4102 311.441 48.1312ZM310.685 39.6702C306.551 38.3682 302.148 40.6652 300.846 44.7932C299.545 48.9232 301.837 53.3292 305.97 54.6302C310.099 55.9312 314.504 53.6372 315.805 49.5062C317.107 45.3782 314.813 40.9702 310.685 39.6702ZM312.426 48.4412C311.713 50.7032 309.295 51.9642 307.034 51.2512C304.773 50.5382 303.513 48.1202 304.226 45.8582C304.939 43.5962 307.359 42.3372 309.619 43.0502C311.878 43.7622 313.138 46.1802 312.426 48.4412ZM311.873 48.2682C312.491 46.3092 311.404 44.2182 309.445 43.6012C307.484 42.9832 305.395 44.0722 304.777 46.0312C304.159 47.9942 305.248 50.0812 307.209 50.6992C309.168 51.3162 311.255 50.2292 311.873 48.2682ZM311.441 48.1312C310.898 49.8542 309.065 50.8092 307.343 50.2672C305.622 49.7252 304.667 47.8912 305.209 46.1682C305.751 44.4472 307.585 43.4922 309.308 44.0342C311.028 44.5762 311.984 46.4102 311.441 48.1312ZM309.444 43.6012C307.483 42.9832 305.394 44.0722 304.776 46.0312C304.158 47.9942 305.247 50.0812 307.208 50.6992C309.167 51.3172 311.254 50.2292 311.872 48.2682C312.49 46.3092 311.403 44.2182 309.444 43.6012ZM311.441 48.1312C310.898 49.8542 309.065 50.8092 307.343 50.2672C305.622 49.7252 304.667 47.8912 305.209 46.1682C305.751 44.4472 307.585 43.4922 309.308 44.0342C311.028 44.5762 311.984 46.4102 311.441 48.1312ZM309.444 43.6012C307.483 42.9832 305.394 44.0722 304.776 46.0312C304.158 47.9942 305.247 50.0812 307.208 50.6992C309.167 51.3172 311.254 50.2292 311.872 48.2682C312.49 46.3092 311.403 44.2182 309.444 43.6012ZM311.441 48.1312C310.898 49.8542 309.065 50.8092 307.343 50.2672C305.622 49.7252 304.667 47.8912 305.209 46.1682C305.751 44.4472 307.585 43.4922 309.308 44.0342C311.028 44.5762 311.984 46.4102 311.441 48.1312Z" fill="#112350"/>
<path d="M307.504 54.772L304.628 53.866L304.146 55.952L306.704 56.758L307.504 54.772Z" fill="#112350"/>
<path d="M302.335 52.0781L300.942 49.4041L299.126 50.5371L300.365 52.9161L302.335 52.0781Z" fill="#112350"/>
<path d="M300.585 46.5182L301.492 43.6422L299.406 43.1602L298.6 45.7182L300.585 46.5182Z" fill="#112350"/>
<path d="M303.278 41.3491L305.953 39.9561L304.819 38.1401L302.44 39.3791L303.278 41.3491Z" fill="#112350"/>
<path d="M308.839 39.599L311.715 40.505L312.198 38.419L309.64 37.613L308.839 39.599Z" fill="#112350"/>
<path d="M314.008 42.2931L315.401 44.9681L317.217 43.8341L315.978 41.4551L314.008 42.2931Z" fill="#112350"/>
<path d="M315.758 47.853L314.852 50.729L316.938 51.212L317.744 48.654L315.758 47.853Z" fill="#112350"/>
<path d="M313.064 53.022L310.39 54.415L311.523 56.231L313.902 54.992L313.064 53.022Z" fill="#112350"/>
<path d="M271.228 186.466C269.267 185.848 267.178 186.937 266.56 188.896C265.942 190.859 267.031 192.946 268.992 193.564C270.951 194.182 273.038 193.094 273.656 191.133C274.273 189.174 273.187 187.083 271.228 186.466ZM273.224 190.996C272.681 192.719 270.848 193.674 269.127 193.132C267.406 192.59 266.451 190.756 266.993 189.033C267.535 187.312 269.369 186.357 271.092 186.899C272.811 187.441 273.767 189.275 273.224 190.996ZM271.228 186.466C269.267 185.848 267.178 186.937 266.56 188.896C265.942 190.859 267.031 192.946 268.992 193.564C270.951 194.182 273.038 193.094 273.656 191.133C274.273 189.174 273.187 187.083 271.228 186.466ZM273.224 190.996C272.681 192.719 270.848 193.674 269.127 193.132C267.406 192.59 266.451 190.756 266.993 189.033C267.535 187.312 269.369 186.357 271.092 186.899C272.811 187.441 273.767 189.275 273.224 190.996ZM271.228 186.466C269.267 185.848 267.178 186.937 266.56 188.896C265.942 190.859 267.031 192.946 268.992 193.564C270.951 194.182 273.038 193.094 273.656 191.133C274.273 189.174 273.187 187.083 271.228 186.466ZM273.224 190.996C272.681 192.719 270.848 193.674 269.127 193.132C267.406 192.59 266.451 190.756 266.993 189.033C267.535 187.312 269.369 186.357 271.092 186.899C272.811 187.441 273.767 189.275 273.224 190.996ZM272.468 182.535C268.334 181.233 263.931 183.53 262.629 187.658C261.328 191.789 263.62 196.194 267.753 197.495C271.882 198.796 276.287 196.502 277.588 192.371C278.89 188.243 276.596 183.835 272.468 182.535ZM274.209 191.306C273.496 193.568 271.078 194.829 268.817 194.116C266.557 193.404 265.296 190.985 266.009 188.723C266.722 186.461 269.142 185.202 271.402 185.915C273.661 186.627 274.921 189.045 274.209 191.306ZM273.656 191.133C274.273 189.174 273.187 187.083 271.228 186.466C269.267 185.848 267.178 186.937 266.56 188.896C265.942 190.859 267.031 192.946 268.992 193.564C270.951 194.182 273.038 193.094 273.656 191.133ZM273.224 190.996C272.681 192.719 270.848 193.674 269.127 193.132C267.406 192.59 266.451 190.756 266.993 189.033C267.535 187.312 269.369 186.357 271.092 186.899C272.811 187.441 273.767 189.275 273.224 190.996ZM271.228 186.466C269.267 185.848 267.178 186.937 266.56 188.896C265.942 190.859 267.031 192.946 268.992 193.564C270.951 194.182 273.038 193.094 273.656 191.133C274.273 189.174 273.187 187.083 271.228 186.466ZM273.224 190.996C272.681 192.719 270.848 193.674 269.127 193.132C267.406 192.59 266.451 190.756 266.993 189.033C267.535 187.312 269.369 186.357 271.092 186.899C272.811 187.441 273.767 189.275 273.224 190.996ZM271.228 186.466C269.267 185.848 267.178 186.937 266.56 188.896C265.942 190.859 267.031 192.946 268.992 193.564C270.951 194.182 273.038 193.094 273.656 191.133C274.273 189.174 273.187 187.083 271.228 186.466ZM273.224 190.996C272.681 192.719 270.848 193.674 269.127 193.132C267.406 192.59 266.451 190.756 266.993 189.033C267.535 187.312 269.369 186.357 271.092 186.899C272.811 187.441 273.767 189.275 273.224 190.996Z" fill="#112350"/>
<path d="M269.287 197.637L266.411 196.731L265.929 198.817L268.487 199.623L269.287 197.637Z" fill="#112350"/>
<path d="M264.118 194.943L262.726 192.269L260.909 193.402L262.148 195.781L264.118 194.943Z" fill="#112350"/>
<path d="M262.368 189.383L263.275 186.507L261.189 186.025L260.383 188.583L262.368 189.383Z" fill="#112350"/>
<path d="M265.062 184.214L267.737 182.822L266.603 181.005L264.224 182.244L265.062 184.214Z" fill="#112350"/>
<path d="M270.622 182.464L273.498 183.371L273.981 181.285L271.423 180.479L270.622 182.464Z" fill="#112350"/>
<path d="M275.791 185.158L277.184 187.833L279 186.699L277.761 184.32L275.791 185.158Z" fill="#112350"/>
<path d="M277.541 190.718L276.635 193.594L278.721 194.077L279.527 191.519L277.541 190.718Z" fill="#112350"/>
<path d="M274.847 195.887L272.173 197.28L273.306 199.096L275.685 197.857L274.847 195.887Z" fill="#112350"/>
<path d="M52.5216 73.993C54.0636 67.665 50.1826 61.284 43.8546 59.742C37.5246 58.2 31.1426 62.081 29.6006 68.409C28.0586 74.739 31.9396 81.121 38.2696 82.663C44.5986 84.204 50.9796 80.323 52.5216 73.993ZM46.4136 72.505C45.6926 75.463 42.7146 77.275 39.7586 76.554C36.8006 75.833 34.9886 72.855 35.7096 69.897C36.4296 66.941 39.4086 65.13 42.3666 65.851C45.3216 66.571 47.1336 69.549 46.4136 72.505Z" fill="#112350"/>
<path d="M40.588 82.7232L36.181 81.6492L35.665 84.8282L39.584 85.7832L40.588 82.7232Z" fill="#112350"/>
<path d="M32.5628 79.1951L30.2058 75.3191L27.5928 77.2021L29.6888 80.6491L32.5628 79.1951Z" fill="#112350"/>
<path d="M29.3813 71.0241L30.4553 66.6181L27.2763 66.1011L26.3213 70.0211L29.3813 71.0241Z" fill="#112350"/>
<path d="M32.9101 62.9981L36.7851 60.6411L34.9031 58.0281L31.4561 60.1251L32.9101 62.9981Z" fill="#112350"/>
<path d="M41.0801 59.8181L45.4871 60.8921L46.0041 57.7131L42.0841 56.7581L41.0801 59.8181Z" fill="#112350"/>
<path d="M49.1064 63.3461L51.4634 67.2221L54.0764 65.3391L51.9804 61.8921L49.1064 63.3461Z" fill="#112350"/>
<path d="M52.2869 71.5171L51.2129 75.9241L54.3919 76.4401L55.3469 72.5201L52.2869 71.5171Z" fill="#112350"/>
<path d="M48.7578 79.543L44.8828 81.9L46.7658 84.513L50.2128 82.416L48.7578 79.543Z" fill="#112350"/>
<path d="M37.3889 73.366L40.9259 75.303L44.3709 73.205L44.2779 69.176L40.7429 67.24L37.2959 69.334L37.3889 73.366ZM41.1359 70.029C41.8239 70.196 42.2429 70.886 42.0749 71.574C41.9079 72.259 41.2179 72.681 40.5299 72.513C39.8449 72.346 39.4239 71.653 39.5909 70.968C39.7589 70.281 40.4509 69.862 41.1359 70.029Z" fill="#112350"/>
<path d="M319.09 195.938C316.4 191.842 314.888 187.235 314.888 182.365C314.888 165.169 333.771 151.227 357.05 151.227C380.329 151.227 399.195 165.17 399.195 182.365C399.195 199.56 380.329 213.503 357.05 213.503C345.762 213.503 335.529 210.233 327.969 204.888L313.446 208.581L319.09 195.938Z" fill="#FBFCFF"/>
<path d="M319.09 195.938C316.552 192.157 314.961 187.692 314.794 183.105C314.668 178.528 315.796 173.897 318.147 169.936C320.445 165.946 323.72 162.582 327.42 159.876C331.124 157.155 335.295 155.1 339.648 153.655C344.002 152.2 348.539 151.328 353.115 150.962C357.698 150.627 362.312 150.911 366.841 151.66C367.966 151.891 369.108 152.045 370.219 152.34L373.549 153.236L376.802 154.385C377.884 154.775 378.912 155.302 379.97 155.754C384.122 157.729 388.015 160.317 391.289 163.584C394.555 166.838 397.189 170.814 398.578 175.263C399.964 179.696 400.065 184.562 398.716 189.02C397.404 193.493 394.831 197.51 391.609 200.807C388.38 204.117 384.518 206.751 380.387 208.771C376.257 210.815 371.807 212.146 367.294 212.966C362.773 213.742 358.16 214.074 353.582 213.751C349.005 213.462 344.458 212.626 340.102 211.188C335.751 209.755 331.564 207.754 327.838 205.075L328.026 205.11L313.474 208.688L313.254 208.742L313.347 208.537L319.09 195.938ZM319.09 195.938L313.546 208.624L313.419 208.473L327.913 204.666L328.013 204.64L328.101 204.701C335.579 209.863 344.598 212.55 353.625 213.033C358.149 213.312 362.699 212.942 367.143 212.139C371.583 211.314 375.957 209.995 380.001 207.977C384.047 205.984 387.816 203.394 390.947 200.164C394.072 196.946 396.542 193.053 397.791 188.752C399.078 184.464 398.955 179.808 397.626 175.556C396.305 171.283 393.779 167.432 390.612 164.258C387.439 161.073 383.643 158.529 379.578 156.581C378.542 156.135 377.536 155.614 376.475 155.229L373.284 154.091L370.013 153.201C368.922 152.907 367.798 152.754 366.692 152.523C362.237 151.767 357.692 151.493 353.173 151.783C348.66 152.104 344.178 152.924 339.872 154.321C335.566 155.708 331.436 157.698 327.763 160.347C324.09 162.98 320.854 166.27 318.52 170.153C316.144 174.016 314.959 178.56 315.011 183.098C315.102 187.645 316.611 192.118 319.09 195.938Z" fill="#112350"/>
<path d="M335.361 187.463V189.778H325.926V176.19H335.189V178.506H328.568V181.778H334.29V183.922H328.568V187.462L335.361 187.463Z" fill="#112350"/>
<path d="M337.429 189.779V176.191H343.439C344.064 176.191 344.641 176.322 345.17 176.584C345.699 176.846 346.155 177.19 346.538 177.617C346.921 178.045 347.221 178.53 347.437 179.072C347.654 179.614 347.762 180.16 347.762 180.708C347.762 181.588 347.542 182.389 347.102 183.11C346.663 183.831 346.066 184.351 345.313 184.669L348.414 189.779H345.447L342.673 185.224H340.07V189.779H337.429ZM340.07 182.908H343.381C343.623 182.908 343.85 182.851 344.06 182.736C344.271 182.621 344.452 182.465 344.606 182.267C344.759 182.07 344.88 181.837 344.969 181.569C345.059 181.301 345.104 181.014 345.104 180.708C345.104 180.389 345.052 180.096 344.951 179.828C344.848 179.56 344.712 179.328 344.539 179.13C344.367 178.932 344.169 178.779 343.946 178.67C343.722 178.562 343.496 178.507 343.266 178.507H340.071V182.908H340.07Z" fill="#112350"/>
<path d="M350.153 189.779V176.191H356.163C356.788 176.191 357.365 176.322 357.894 176.584C358.423 176.846 358.879 177.19 359.262 177.617C359.645 178.045 359.945 178.53 360.161 179.072C360.378 179.614 360.486 180.16 360.486 180.708C360.486 181.588 360.266 182.389 359.826 183.11C359.387 183.831 358.79 184.351 358.037 184.669L361.137 189.779H358.17L355.395 185.224H352.793V189.779H350.153ZM352.795 182.908H356.105C356.347 182.908 356.574 182.851 356.784 182.736C356.995 182.621 357.176 182.465 357.33 182.267C357.483 182.07 357.604 181.837 357.693 181.569C357.783 181.301 357.828 181.014 357.828 180.708C357.828 180.389 357.776 180.096 357.675 179.828C357.572 179.56 357.436 179.328 357.263 179.13C357.091 178.932 356.893 178.779 356.67 178.67C356.446 178.562 356.22 178.507 355.99 178.507H352.795V182.908Z" fill="#112350"/>
<path d="M368.68 189.874C367.685 189.874 366.783 189.68 365.972 189.291C365.161 188.902 364.466 188.385 363.886 187.741C363.305 187.097 362.856 186.36 362.536 185.531C362.218 184.702 362.059 183.853 362.059 182.986C362.059 182.08 362.228 181.213 362.566 180.383C362.904 179.554 363.37 178.82 363.962 178.182C364.556 177.544 365.261 177.037 366.077 176.661C366.893 176.285 367.78 176.096 368.737 176.096C369.719 176.096 370.615 176.297 371.426 176.699C372.237 177.101 372.929 177.627 373.502 178.278C374.076 178.928 374.523 179.669 374.842 180.498C375.161 181.328 375.32 182.169 375.32 183.024C375.32 183.93 375.154 184.794 374.823 185.617C374.491 186.44 374.031 187.167 373.445 187.799C372.858 188.431 372.156 188.935 371.34 189.311C370.523 189.686 369.637 189.874 368.68 189.874ZM364.737 182.985C364.737 183.572 364.826 184.14 365.005 184.688C365.184 185.237 365.443 185.722 365.78 186.143C366.118 186.564 366.533 186.902 367.024 187.157C367.515 187.412 368.073 187.54 368.699 187.54C369.337 187.54 369.901 187.41 370.392 187.148C370.883 186.887 371.297 186.539 371.636 186.105C371.974 185.671 372.229 185.183 372.402 184.641C372.574 184.099 372.66 183.547 372.66 182.986C372.66 182.4 372.567 181.832 372.383 181.283C372.198 180.735 371.937 180.249 371.599 179.828C371.26 179.407 370.846 179.072 370.355 178.824C369.864 178.575 369.312 178.45 368.7 178.45C368.061 178.45 367.494 178.581 366.997 178.843C366.499 179.105 366.084 179.449 365.753 179.876C365.421 180.304 365.169 180.789 364.997 181.331C364.823 181.872 364.737 182.424 364.737 182.985Z" fill="#112350"/>
<path d="M377.349 189.779V176.191H383.359C383.984 176.191 384.561 176.322 385.09 176.584C385.619 176.846 386.075 177.19 386.458 177.617C386.841 178.045 387.141 178.53 387.357 179.072C387.574 179.614 387.682 180.16 387.682 180.708C387.682 181.588 387.462 182.389 387.022 183.11C386.583 183.831 385.986 184.351 385.233 184.669L388.334 189.779H385.367L382.593 185.224H379.99V189.779H377.349ZM379.99 182.908H383.301C383.543 182.908 383.77 182.851 383.98 182.736C384.191 182.621 384.373 182.465 384.526 182.267C384.679 182.07 384.8 181.837 384.889 181.569C384.979 181.301 385.024 181.014 385.024 180.708C385.024 180.389 384.972 180.096 384.871 179.828C384.768 179.56 384.632 179.328 384.459 179.13C384.287 178.932 384.089 178.779 383.866 178.67C383.642 178.562 383.416 178.507 383.186 178.507H379.991V182.908H379.99Z" fill="#112350"/>
</svg>
